# xmcd
#
# Track frame offsets: 
#        150
#        19533
#        41748
#        67608
#        105528
#        125990
#        145025
#        175390
#
# Disc length: 3019 seconds
#
# Revision: 0
# Processed by: cddbd v1.5.1PL0 Copyright (c) Steve Scherf et al.
# Submitted via: ExactAudioCopy v0.95a5
#
DISCID=670bc908
DTITLE=Crossing Oceans - Live Acid Blues
DYEAR=1994
DGENRE=Blues
TTITLE0=Hear My Sorrow
TTITLE1=The Road
TTITLE2=Stone Cold
TTITLE3=Texas Flood
TTITLE4=Restless Waiting
TTITLE5=All In Vain
TTITLE6=Tex Joe
TTITLE7=Little Old Woman
EXTD=
EXTT0=
EXTT1=
EXTT2=
EXTT3=
EXTT4=
EXTT5=
EXTT6=
EXTT7=
PLAYORDER=
